<svg xmlns="http://www.w3.org/2000/svg" viewBox="0 0 1200 800" fill="#00A0DC">
  <!-- NCYD Donkey Silhouette -->
  <text x="0" y="700" font-family="Arial Black, sans-serif" font-size="600" font-weight="bold" fill="#00A0DC">NCYD</text>
  <path d="M850,100 Q950,50 1050,100 L1100,150 Q1120,200 1100,250 L1050,300 Q1000,320 950,300 L900,280 L920,350 L850,380 L820,320 L780,350 L750,300 Q730,280 720,250 L700,200 Q690,150 700,100 Q750,80 800,100 L850,100 Z M900,150 Q920,140 940,150 Q950,170 940,190 Q920,200 900,190 Q890,170 900,150 Z" fill="#00A0DC"/>
</svg>
